<?xml version="1.0" encoding="UTF-8" standalone="no" ?>
<!DOCTYPE svg PUBLIC "-//W3C//DTD SVG 1.1//EN" "http://www.w3.org/Graphics/SVG/1.1/DTD/svg11.dtd">
<svg xmlns="http://www.w3.org/2000/svg" xmlns:xlink="http://www.w3.org/1999/xlink" version="1.1" width="700.88" height="425.71000000000004" xml:space="preserve">
<desc>Created with Fabric.js 1.6.0-rc.1</desc>
<defs></defs>
<g style="stroke: none; stroke-width: 1; stroke-dasharray: none; stroke-linecap: butt; stroke-linejoin: miter; stroke-miterlimit: 10; fill: none; fill-rule: nonzero; opacity: 1;" transform="translate(639.58 285.05) scale(0.1 0.1)" >
  <path d="M 375.168 269.517 c -35.88 -7.69 -67.164 -27.776 -89.176 -55.553 c -9.3 -11.735 -16.949 -24.846 -22.576 -38.975 c -3.797 -9.52 -6.672 -19.481 -8.53 -29.813 c -1.637 -9.025 -2.49 -18.325 -2.49 -27.818 V 88.523 H 23.622 v 191.601 c 34.834 34.834 52.155 80.798 111.271 111.271 h 78.335 l 37.393 23.154 h 82.944 c 32.495 -2.064 87.525 -6.741 87.525 -21.985 C 421.09 351.402 436.224 310.019 375.168 269.517 z" style="stroke: none; stroke-width: 1; stroke-dasharray: none; stroke-linecap: butt; stroke-linejoin: miter; stroke-miterlimit: 10; fill: #FED159; fill-rule: nonzero; opacity: 1;" transform=" matrix(1 0 0 1 0 0) " stroke-linecap="round" />
  <path d="M 487.388 323.543 v 91.006 H 333.565 c -4.843 -13.579 -7.47 -28.203 -7.47 -43.446 c 0 -41.163 19.178 -77.84 49.073 -101.586 c 10.593 2.298 21.586 3.494 32.867 3.494 h 28.822 C 464.77 273.011 487.388 295.629 487.388 323.543 z" style="stroke: none; stroke-width: 1; stroke-dasharray: none; stroke-linecap: butt; stroke-linejoin: miter; stroke-miterlimit: 10; fill: #EFBE52; fill-rule: nonzero; opacity: 1;" transform=" matrix(1 0 0 1 0 0) " stroke-linecap="round" />
  <path d="M 54.575 284.519 V 145.176 h 200.311 c -1.637 -9.025 -2.49 -18.325 -2.49 -27.818 v -8.144 H 23.622 v 0.132 v 35.83 v 134.948 v 54.147 v 57.124 h 111.271 C 134.893 340.686 100.962 297.932 54.575 284.519 z" style="stroke: none; stroke-width: 1; stroke-dasharray: none; stroke-linecap: butt; stroke-linejoin: miter; stroke-miterlimit: 10; fill: #EFBE52; fill-rule: nonzero; opacity: 1;" transform=" matrix(1 0 0 1 0 0) " stroke-linecap="round" />
  <path d="M 263.415 184.619 h -56.021 v -19.261 h 56.021 c 5.319 0 9.63 4.312 9.63 9.63 l 0 0 C 273.046 180.307 268.734 184.619 263.415 184.619 z" style="stroke: none; stroke-width: 1; stroke-dasharray: none; stroke-linecap: butt; stroke-linejoin: miter; stroke-miterlimit: 10; fill: #EE4948; fill-rule: nonzero; opacity: 1;" transform=" matrix(1 0 0 1 0 0) " stroke-linecap="round" />
  <path d="M 251.464 243.639 l -9.18 -16.933 l 39.118 -21.209 c 4.676 -2.536 10.522 -0.799 13.056 3.875 l 0 0 c 2.536 4.676 0.799 10.52 -3.875 13.056 L 251.464 243.639 z" style="stroke: none; stroke-width: 1; stroke-dasharray: none; stroke-linecap: butt; stroke-linejoin: miter; stroke-miterlimit: 10; fill: #EE4948; fill-rule: nonzero; opacity: 1;" transform=" matrix(1 0 0 1 0 0) " stroke-linecap="round" />
  <path d="M 512 443.357 v 35.042 c 0 10.187 -8.259 18.447 -18.447 18.447 H 223.904 l -17.802 -18.82 H 139.35 l -19.591 18.82 H 18.447 C 8.259 496.846 0 488.587 0 478.399 v -35.042 L 512 443.357 L 512 443.357 z" style="stroke: none; stroke-width: 1; stroke-dasharray: none; stroke-linecap: butt; stroke-linejoin: miter; stroke-miterlimit: 10; fill: #F2C386; fill-rule: nonzero; opacity: 1;" transform=" matrix(1 0 0 1 0 0) " stroke-linecap="round" />
  <path d="M 512 430.932 v 20.679 H 0 v -31.307 c 0 -9.605 4.825 -18.57 12.843 -23.86 l 10.779 -7.113 h 111.271 h 78.335 l 37.393 23.154 h 82.944 h 153.823 h 6.165 C 503.741 412.485 512 420.744 512 430.932 z" style="stroke: none; stroke-width: 1; stroke-dasharray: none; stroke-linecap: butt; stroke-linejoin: miter; stroke-miterlimit: 10; fill: #CC9758; fill-rule: nonzero; opacity: 1;" transform=" matrix(1 0 0 1 0 0) " stroke-linecap="round" />
  <path d="M 233.933 220.87 c 11.831 0 21.407 9.575 21.407 21.407 c 0 11.818 -9.575 21.393 -21.407 21.393 c -11.818 0 -21.393 -9.575 -21.393 -21.393 C 212.54 230.445 222.115 220.87 233.933 220.87 z" style="stroke: none; stroke-width: 1; stroke-dasharray: none; stroke-linecap: butt; stroke-linejoin: miter; stroke-miterlimit: 10; fill: #808080; fill-rule: nonzero; opacity: 1;" transform=" matrix(1 0 0 1 0 0) " stroke-linecap="round" />
  <path d="M 195.618 153.596 c 11.818 0 21.407 9.575 21.407 21.393 s -9.589 21.407 -21.407 21.407 s -21.407 -9.589 -21.407 -21.407 C 174.212 163.171 183.801 153.596 195.618 153.596 z" style="stroke: none; stroke-width: 1; stroke-dasharray: none; stroke-linecap: butt; stroke-linejoin: miter; stroke-miterlimit: 10; fill: #808080; fill-rule: nonzero; opacity: 1;" transform=" matrix(1 0 0 1 0 0) " stroke-linecap="round" />
  <path d="M 271.972 44.581 v 66.696 h -19.577 H 23.622 H 0.482 V 44.581 c 0 -16.248 13.18 -29.427 29.441 -29.427 h 212.623 C 258.793 15.154 271.972 28.334 271.972 44.581 z" style="stroke: none; stroke-width: 1; stroke-dasharray: none; stroke-linecap: butt; stroke-linejoin: miter; stroke-miterlimit: 10; fill: #CC9758; fill-rule: nonzero; opacity: 1;" transform=" matrix(1 0 0 1 0 0) " stroke-linecap="round" />
  <path d="M 246.37 44.581 v 66.696 h -15.884 H 44.861 H 26.084 V 44.581 c 0 -16.248 10.694 -29.427 23.889 -29.427 h 172.521 C 235.676 15.154 246.37 28.334 246.37 44.581 z" style="stroke: none; stroke-width: 1; stroke-dasharray: none; stroke-linecap: butt; stroke-linejoin: miter; stroke-miterlimit: 10; fill: #F2C386; fill-rule: nonzero; opacity: 1;" transform=" matrix(1 0 0 1 0 0) " stroke-linecap="round" />
</g>
<g style="stroke: none; stroke-width: 1; stroke-dasharray: none; stroke-linecap: butt; stroke-linejoin: miter; stroke-miterlimit: 10; fill: none; fill-rule: nonzero; opacity: 1;" transform="translate(647.2199999999999 370.41) scale(0.1 0.1)" >
  <rect x="86" y="88" rx="0" ry="0" width="284" height="56" style="stroke: none; stroke-width: 1; stroke-dasharray: none; stroke-linecap: butt; stroke-linejoin: miter; stroke-miterlimit: 10; fill: #D3D3D1; fill-rule: nonzero; opacity: 1;" transform=" matrix(1 0 0 1 0 0) "/>
  <path d="M 378 156 H 74 c -6.8 0 -12 -5.2 -12 -12 V 88 c 0 -6.8 5.2 -12 12 -12 h 304 c 6.8 0 12 5.2 12 12 v 56 C 390 150.8 384.8 156 378 156 z M 86 132 h 280 v -32 H 86 V 132 z" style="stroke: none; stroke-width: 1; stroke-dasharray: none; stroke-linecap: butt; stroke-linejoin: miter; stroke-miterlimit: 10; fill: #454B54; fill-rule: nonzero; opacity: 1;" transform=" matrix(1 0 0 1 0 0) " stroke-linecap="round" />
  <path d="M 306 348 H 146 c -22 0 -40 -18 -40 -40 V 68 h 240 v 240 C 346 330 328 348 306 348 z" style="stroke: none; stroke-width: 1; stroke-dasharray: none; stroke-linecap: butt; stroke-linejoin: miter; stroke-miterlimit: 10; fill: #EAEAEA; fill-rule: nonzero; opacity: 1;" transform=" matrix(1 0 0 1 0 0) " stroke-linecap="round" />
  <path d="M 306 348 H 146 c -22 0 -40 -18 -40 -40 h 240 C 346 330 328 348 306 348 z" style="stroke: none; stroke-width: 1; stroke-dasharray: none; stroke-linecap: butt; stroke-linejoin: miter; stroke-miterlimit: 10; fill: #B2B3B3; fill-rule: nonzero; opacity: 1;" transform=" matrix(1 0 0 1 0 0) " stroke-linecap="round" />
  <path d="M 306 68 H 106 v 124 c 11.6 7.6 25.2 12 40 12 h 160 v 104 c 0 22 -18 40 -40 40 h 40 c 22 0 40 -18 40 -40 V 192 V 68 H 306 z" style="stroke: none; stroke-width: 1; stroke-dasharray: none; stroke-linecap: butt; stroke-linejoin: miter; stroke-miterlimit: 10; fill: #0C0F13; fill-rule: nonzero; opacity: 1;" transform=" matrix(1 0 0 1 0 0) " stroke-linecap="round" />
  <path d="M 306 172 H 146 c -22 0 -40 -18 -40 -40 V 68 h 240 v 64 C 346 154 328 172 306 172 z" style="stroke: none; stroke-width: 1; stroke-dasharray: none; stroke-linecap: butt; stroke-linejoin: miter; stroke-miterlimit: 10; fill: #BAA0B5; fill-rule: nonzero; opacity: 1;" transform=" matrix(1 0 0 1 0 0) " stroke-linecap="round" />
  <path d="M 258 80 c -6.8 0 -12 -5.2 -12 -12 V 44 c 0 -11.2 -8.8 -20 -20 -20 s -20 8.8 -20 20 v 24 c 0 6.8 -5.2 12 -12 12 s -12 -5.2 -12 -12 V 44 c 0 -24.4 19.6 -44 44 -44 s 44 19.6 44 44 v 24 C 270 74.8 264.8 80 258 80 z" style="stroke: none; stroke-width: 1; stroke-dasharray: none; stroke-linecap: butt; stroke-linejoin: miter; stroke-miterlimit: 10; fill: #454B54; fill-rule: nonzero; opacity: 1;" transform=" matrix(1 0 0 1 0 0) " stroke-linecap="round" />
  <path d="M 306 184 H 146 c -28.8 0 -52 -23.2 -52 -52 c 0 -6.8 5.2 -12 12 -12 s 12 5.2 12 12 c 0 15.6 12.4 28 28 28 h 160 c 15.6 0 28 -12.4 28 -28 c 0 -6.8 5.2 -12 12 -12 s 12 5.2 12 12 C 358 160.8 334.8 184 306 184 z" style="stroke: none; stroke-width: 1; stroke-dasharray: none; stroke-linecap: butt; stroke-linejoin: miter; stroke-miterlimit: 10; fill: #454B54; fill-rule: nonzero; opacity: 1;" transform=" matrix(1 0 0 1 0 0) " stroke-linecap="round" />
  <path d="M 106 308 L 106 308 c -20 0 -36 -16 -36 -36 v -48 c 0 -20 16 -36 36 -36 l 0 0 V 308 z" style="stroke: none; stroke-width: 1; stroke-dasharray: none; stroke-linecap: butt; stroke-linejoin: miter; stroke-miterlimit: 10; fill: #D3D3D1; fill-rule: nonzero; opacity: 1;" transform=" matrix(1 0 0 1 0 0) " stroke-linecap="round" />
  <path d="M 106 320 c -26.4 0 -48 -21.6 -48 -48 v -48 c 0 -26.4 21.6 -48 48 -48 c 6.8 0 12 5.2 12 12 v 120 C 118 314.8 112.8 320 106 320 z M 94 203.2 c -7.2 4 -12 12 -12 20.8 v 48 c 0 8.8 4.8 16.8 12 20.8 V 203.2 z" style="stroke: none; stroke-width: 1; stroke-dasharray: none; stroke-linecap: butt; stroke-linejoin: miter; stroke-miterlimit: 10; fill: #454B54; fill-rule: nonzero; opacity: 1;" transform=" matrix(1 0 0 1 0 0) " stroke-linecap="round" />
  <path d="M 346 308 L 346 308 V 188 l 0 0 c 20 0 36 16 36 36 v 48 C 382 292 366 308 346 308 z" style="stroke: none; stroke-width: 1; stroke-dasharray: none; stroke-linecap: butt; stroke-linejoin: miter; stroke-miterlimit: 10; fill: #D3D3D1; fill-rule: nonzero; opacity: 1;" transform=" matrix(1 0 0 1 0 0) " stroke-linecap="round" />
  <path d="M 346 320 c -6.8 0 -12 -5.2 -12 -12 V 188 c 0 -6.8 5.2 -12 12 -12 c 26.4 0 48 21.6 48 48 v 48 C 394 298.4 372.4 320 346 320 z M 358 203.2 v 89.6 c 7.2 -4 12 -12 12 -20.8 v -48 C 370 215.2 365.2 207.2 358 203.2 z" style="stroke: none; stroke-width: 1; stroke-dasharray: none; stroke-linecap: butt; stroke-linejoin: miter; stroke-miterlimit: 10; fill: #454B54; fill-rule: nonzero; opacity: 1;" transform=" matrix(1 0 0 1 0 0) " stroke-linecap="round" />
  <path d="M 346 428 H 106 c -11.2 0 -20 -8.8 -20 -20 v -40 c 0 -11.2 8.8 -20 20 -20 h 240 c 11.2 0 20 8.8 20 20 v 40 C 366 419.2 357.2 428 346 428 z" style="stroke: none; stroke-width: 1; stroke-dasharray: none; stroke-linecap: butt; stroke-linejoin: miter; stroke-miterlimit: 10; fill: #ACD168; fill-rule: nonzero; opacity: 1;" transform=" matrix(1 0 0 1 0 0) " stroke-linecap="round" />
  <path d="M 346 400 H 106 c -11.2 0 -20 -8.8 -20 -20 v 28 c 0 11.2 8.8 20 20 20 h 240 c 11.2 0 20 -8.8 20 -20 v -28 C 366 391.2 357.2 400 346 400 z" style="stroke: none; stroke-width: 1; stroke-dasharray: none; stroke-linecap: butt; stroke-linejoin: miter; stroke-miterlimit: 10; fill: #0C0F13; fill-rule: nonzero; opacity: 1;" transform=" matrix(1 0 0 1 0 0) " stroke-linecap="round" />
  <path d="M 346 440 H 106 c -17.6 0 -32 -14.4 -32 -32 v -40 c 0 -17.6 14.4 -32 32 -32 h 240 c 17.6 0 32 14.4 32 32 v 40 C 378 425.6 363.6 440 346 440 z M 106 360 c -4.4 0 -8 3.6 -8 8 v 40 c 0 4.4 3.6 8 8 8 h 240 c 4.4 0 8 -3.6 8 -8 v -40 c 0 -4.4 -3.6 -8 -8 -8 H 106 z" style="stroke: none; stroke-width: 1; stroke-dasharray: none; stroke-linecap: butt; stroke-linejoin: miter; stroke-miterlimit: 10; fill: #454B54; fill-rule: nonzero; opacity: 1;" transform=" matrix(1 0 0 1 0 0) " stroke-linecap="round" />
  <path d="M 286 320 H 166 c -6.8 0 -12 -5.2 -12 -12 s 5.2 -12 12 -12 h 120 c 6.8 0 12 5.2 12 12 S 292.8 320 286 320 z" style="stroke: none; stroke-width: 1; stroke-dasharray: none; stroke-linecap: butt; stroke-linejoin: miter; stroke-miterlimit: 10; fill: #454B54; fill-rule: nonzero; opacity: 1;" transform=" matrix(1 0 0 1 0 0) " stroke-linecap="round" />
  <path d="M 306 360 H 146 c -28.8 0 -52 -23.2 -52 -52 V 68 c 0 -6.8 5.2 -12 12 -12 h 240 c 6.8 0 12 5.2 12 12 v 240 C 358 336.8 334.8 360 306 360 z M 118 80 v 228 c 0 15.6 12.4 28 28 28 h 160 c 15.6 0 28 -12.4 28 -28 V 80 H 118 z" style="stroke: none; stroke-width: 1; stroke-dasharray: none; stroke-linecap: butt; stroke-linejoin: miter; stroke-miterlimit: 10; fill: #454B54; fill-rule: nonzero; opacity: 1;" transform=" matrix(1 0 0 1 0 0) " stroke-linecap="round" />
  <path d="M 166 220 c -6.8 0 -12 -5.2 -12 -12 v -60 c 0 -6.8 5.2 -12 12 -12 s 12 5.2 12 12 v 60 C 178 214.8 172.8 220 166 220 z" style="stroke: none; stroke-width: 1; stroke-dasharray: none; stroke-linecap: butt; stroke-linejoin: miter; stroke-miterlimit: 10; fill: #454B54; fill-rule: nonzero; opacity: 1;" transform=" matrix(1 0 0 1 0 0) " stroke-linecap="round" />
  <path d="M 286 220 c -6.8 0 -12 -5.2 -12 -12 v -60 c 0 -6.8 5.2 -12 12 -12 s 12 5.2 12 12 v 60 C 298 214.8 292.8 220 286 220 z" style="stroke: none; stroke-width: 1; stroke-dasharray: none; stroke-linecap: butt; stroke-linejoin: miter; stroke-miterlimit: 10; fill: #454B54; fill-rule: nonzero; opacity: 1;" transform=" matrix(1 0 0 1 0 0) " stroke-linecap="round" />
  <path d="M 166 452 c -6.8 0 -12 -5.2 -12 -12 v -92 c 0 -6.8 5.2 -12 12 -12 s 12 5.2 12 12 v 92 C 178 446.8 172.8 452 166 452 z" style="stroke: none; stroke-width: 1; stroke-dasharray: none; stroke-linecap: butt; stroke-linejoin: miter; stroke-miterlimit: 10; fill: #454B54; fill-rule: nonzero; opacity: 1;" transform=" matrix(1 0 0 1 0 0) " stroke-linecap="round" />
  <path d="M 286 452 c -6.8 0 -12 -5.2 -12 -12 v -92 c 0 -6.8 5.2 -12 12 -12 s 12 5.2 12 12 v 92 C 298 446.8 292.8 452 286 452 z" style="stroke: none; stroke-width: 1; stroke-dasharray: none; stroke-linecap: butt; stroke-linejoin: miter; stroke-miterlimit: 10; fill: #454B54; fill-rule: nonzero; opacity: 1;" transform=" matrix(1 0 0 1 0 0) " stroke-linecap="round" />
</g>
<g style="stroke: none; stroke-width: 1; stroke-dasharray: none; stroke-linecap: butt; stroke-linejoin: miter; stroke-miterlimit: 10; fill: none; fill-rule: nonzero; opacity: 1;" transform="translate(68.00999999999999 38.93999999999999) scale(0.12 0.12)" >
  <path d="M 404.7 472.751 c 0 0 -0.024 0 -0.072 0.012 c -39.819 11.234 -88.579 21.309 -141.635 28.585 C 123.806 520.462 7.848 513.15 3.999 485.023 c -3.861 -28.115 105.798 -66.389 244.936 -85.49 c 0.048 -0.012 0.072 -0.012 0.072 -0.012 C 388.193 380.419 504.151 387.72 508 415.846 C 510.389 433.234 469.315 454.519 404.7 472.751 z" style="stroke: none; stroke-width: 1; stroke-dasharray: none; stroke-linecap: butt; stroke-linejoin: miter; stroke-miterlimit: 10; fill: #49CEAB; fill-rule: nonzero; opacity: 1;" transform=" matrix(1 0 0 1 0 0) " stroke-linecap="round" />
  <path d="M 303.896 484.598 c -13.273 2.268 -26.944 4.38 -40.905 6.299 C 129.983 509.165 18.188 503.289 5.168 478.191 c 12.465 -27.21 115.608 -61.068 243.765 -78.661 c -3.005 0.676 -101.37 23.035 -96.821 66.993 C 154.719 491.681 234.647 490.462 303.896 484.598 z" style="stroke: none; stroke-width: 1; stroke-dasharray: none; stroke-linecap: butt; stroke-linejoin: miter; stroke-miterlimit: 10; fill: #3ABA96; fill-rule: nonzero; opacity: 1;" transform=" matrix(1 0 0 1 0 0) " stroke-linecap="round" />
  <path d="M 270.484 216.193 c 0 0 85.14 76.706 65.967 213.985 l -0.012 -0.024 c -0.422 -1.581 -28.091 -102.926 -88.966 -125.756 c -61.358 -23.011 -72.857 151.095 -72.857 151.095 c 0 -0.012 -0.012 -0.012 -0.012 -0.024 c -1.062 -1.605 -50.027 -77.032 -3.825 -192.483 c 32.941 -82.353 -12.959 -116.236 -65.267 -126.818 c -13.852 -2.799 -28.151 -3.97 -41.545 -3.97 c 23.433 -16.893 58.51 -33.062 98.498 -21.345 c 0.06 0.012 0.109 0.036 0.169 0.048 c 14.926 4.404 30.54 12.694 46.492 26.293 c 12.525 10.679 25.46 18.824 38.48 24.929 h 0.012 c 84.211 39.505 171.656 -6.516 171.656 -6.516 S 384.005 229.237 270.484 216.193 z" style="stroke: none; stroke-width: 1; stroke-dasharray: none; stroke-linecap: butt; stroke-linejoin: miter; stroke-miterlimit: 10; fill: #F9E178; fill-rule: nonzero; opacity: 1;" transform=" matrix(1 0 0 1 0 0) " stroke-linecap="round" />
  <path d="M 187.359 276.115 c -12.597 33.508 -39.421 118.492 -12.754 179.355 c -1.062 -1.605 -50.027 -77.032 -3.825 -192.483 c 32.941 -82.353 -12.959 -116.236 -65.267 -126.818 c 0 0 54.769 -3.523 72.459 23.023 C 195.672 185.738 199.956 242.607 187.359 276.115 z" style="stroke: none; stroke-width: 1; stroke-dasharray: none; stroke-linecap: butt; stroke-linejoin: miter; stroke-miterlimit: 10; fill: #E8D170; fill-rule: nonzero; opacity: 1;" transform=" matrix(1 0 0 1 0 0) " stroke-linecap="round" />
  <path d="M 336.451 430.179 l -0.012 -0.024 c -0.422 -1.581 -28.091 -102.926 -88.966 -125.756 C 247.473 304.399 322.394 297.823 336.451 430.179 z" style="stroke: none; stroke-width: 1; stroke-dasharray: none; stroke-linecap: butt; stroke-linejoin: miter; stroke-miterlimit: 10; fill: #E8D170; fill-rule: nonzero; opacity: 1;" transform=" matrix(1 0 0 1 0 0) " stroke-linecap="round" />
  <path d="M 329.841 320.425 c -14.262 14.262 -41.882 14.154 -41.882 14.154 c -11.354 -13.237 -24.821 -24.302 -40.483 -30.178 c -26.872 -10.075 -44.175 17.641 -55.143 51.982 c -23.735 0 -40.459 -12.706 -40.459 -12.706 h -0.29 c 1.327 -18.582 5.008 -39.131 12.199 -61.37 l 0.145 -0.048 c 0 0 67.053 -24.977 151.904 0 C 321.069 293.603 325.919 306.333 329.841 320.425 z" style="stroke: none; stroke-width: 1; stroke-dasharray: none; stroke-linecap: butt; stroke-linejoin: miter; stroke-miterlimit: 10; fill: #F24141; fill-rule: nonzero; opacity: 1;" transform=" matrix(1 0 0 1 0 0) " stroke-linecap="round" />
  <circle cx="257.796" cy="105.196" r="60.996" style="stroke: none; stroke-width: 1; stroke-dasharray: none; stroke-linecap: butt; stroke-linejoin: miter; stroke-miterlimit: 10; fill: #F9E178; fill-rule: nonzero; opacity: 1;" transform="  matrix(1 0 0 1 0 0) "/>
  <path d="M 271.076 152.918 c -26.355 0 -47.721 -21.366 -47.721 -47.721 s 21.366 -47.721 47.721 -47.721 c 25.532 0 46.381 20.051 47.66 45.266 c -1.291 -32.545 -28.07 -58.539 -60.933 -58.539 c -33.687 0 -60.994 27.309 -60.994 60.994 c 0 33.687 27.309 60.994 60.994 60.994 c 32.863 0 59.642 -25.992 60.933 -58.539 C 317.457 132.868 296.608 152.918 271.076 152.918 z" style="stroke: none; stroke-width: 1; stroke-dasharray: none; stroke-linecap: butt; stroke-linejoin: miter; stroke-miterlimit: 10; fill: #E8D170; fill-rule: nonzero; opacity: 1;" transform=" matrix(1 0 0 1 0 0) " stroke-linecap="round" />
  <path d="M 246.605 102.359 c -3.602 0 -6.64 -3.041 -6.637 -6.637 c 0.004 -3.873 3.481 -7.021 7.336 -6.599 c 3.54 0.387 6.218 3.592 5.91 7.157 C 252.921 99.669 250.015 102.359 246.605 102.359 z" style="stroke: none; stroke-width: 1; stroke-dasharray: none; stroke-linecap: butt; stroke-linejoin: miter; stroke-miterlimit: 10; fill: #216B84; fill-rule: nonzero; opacity: 1;" transform=" matrix(1 0 0 1 0 0) " stroke-linecap="round" />
  <path d="M 295.689 100.525 c -3.607 0 -6.635 -3.031 -6.637 -6.637 c -0.001 -3.69 3.171 -6.76 6.86 -6.632 c 3.453 0.119 6.295 2.961 6.407 6.414 C 302.439 97.366 299.393 100.525 295.689 100.525 z" style="stroke: none; stroke-width: 1; stroke-dasharray: none; stroke-linecap: butt; stroke-linejoin: miter; stroke-miterlimit: 10; fill: #216B84; fill-rule: nonzero; opacity: 1;" transform=" matrix(1 0 0 1 0 0) " stroke-linecap="round" />
  <path d="M 291.504 114.655 c 0.302 5.756 -1.991 11.041 -5.84 14.745 c -3.198 3.065 -7.469 5.032 -12.235 5.285 c -4.995 0.253 -9.641 -1.436 -13.201 -4.416 c -3.934 -3.282 -6.54 -8.133 -6.818 -13.659 L 291.504 114.655 z" style="stroke: none; stroke-width: 1; stroke-dasharray: none; stroke-linecap: butt; stroke-linejoin: miter; stroke-miterlimit: 10; fill: #4D4D4D; fill-rule: nonzero; opacity: 1;" transform=" matrix(1 0 0 1 0 0) " stroke-linecap="round" />
  <path d="M 285.663 129.4 c -3.198 3.065 -7.469 5.032 -12.235 5.285 c -4.995 0.253 -9.641 -1.436 -13.201 -4.416 c 3.186 -3.065 7.457 -5.032 12.223 -5.285 C 277.458 124.73 282.104 126.419 285.663 129.4 z" style="stroke: none; stroke-width: 1; stroke-dasharray: none; stroke-linecap: butt; stroke-linejoin: miter; stroke-miterlimit: 10; fill: #F24141; fill-rule: nonzero; opacity: 1;" transform=" matrix(1 0 0 1 0 0) " stroke-linecap="round" />
  <path d="M 307.769 74.015 c -6.407 -3.813 -12.573 -6.709 -18.486 -8.808 c -4.259 -1.52 -8.386 -2.63 -12.368 -3.379 c -1.11 -0.217 -2.208 -0.398 -3.294 -0.555 c -9.798 -1.388 -18.739 -0.627 -26.824 1.508 c -1.762 0.471 -3.487 1.002 -5.164 1.593 c -5.032 1.762 -9.689 4.054 -13.961 6.637 c -26.932 16.35 -59.511 11.644 -81.34 -7.155 c -0.012 0 -0.012 -0.012 -0.024 -0.012 c -10.136 -8.736 -17.955 -20.513 -21.804 -34.643 c -0.121 -0.446 -0.181 -0.688 -0.181 -0.688 C 185.862 47.819 230.508 -7.011 275.154 0.76 C 336.017 11.354 307.769 74.015 307.769 74.015 z" style="stroke: none; stroke-width: 1; stroke-dasharray: none; stroke-linecap: butt; stroke-linejoin: miter; stroke-miterlimit: 10; fill: #F2D546; fill-rule: nonzero; opacity: 1;" transform=" matrix(1 0 0 1 0 0) " stroke-linecap="round" />
  <path d="M 275.154 0.76 c -4.18 -0.728 -8.361 -0.906 -12.555 -0.648 c 1.873 0.116 3.745 0.322 5.617 0.648 c 52.628 9.161 38.631 57.243 33.879 70.09 c 1.871 0.979 3.761 2.026 5.675 3.165 C 307.769 74.015 336.017 11.354 275.154 0.76 z" style="stroke: none; stroke-width: 1; stroke-dasharray: none; stroke-linecap: butt; stroke-linejoin: miter; stroke-miterlimit: 10; fill: #F9E280; fill-rule: nonzero; opacity: 1;" transform=" matrix(1 0 0 1 0 0) " stroke-linecap="round" />
  <path d="M 178.66 51.441 c -14.48 0 -28.962 -18.797 -28.962 -18.797 l -25.193 -3.445 C 141.54 56.43 178.66 51.441 178.66 51.441 z" style="stroke: none; stroke-width: 1; stroke-dasharray: none; stroke-linecap: butt; stroke-linejoin: miter; stroke-miterlimit: 10; fill: #D8BA3A; fill-rule: nonzero; opacity: 1;" transform=" matrix(1 0 0 1 0 0) " stroke-linecap="round" />
  <path d="M 286.81 59.909 c -1.919 -3.572 -4.296 -6.878 -7.059 -9.726 c -0.724 -0.7 -1.376 -1.424 -2.136 -2.063 l -2.293 -1.834 c -0.76 -0.591 -1.629 -1.086 -2.425 -1.605 l -1.207 -0.748 l -1.303 -0.615 c -3.33 -1.774 -7.011 -2.51 -10.437 -3.041 c 2.956 1.955 5.683 3.982 7.674 6.624 l 0.784 0.929 l 0.664 1.014 c 0.422 0.688 0.881 1.315 1.255 2.015 l 1.026 2.112 c 0.338 0.688 0.555 1.46 0.833 2.172 c 0.41 1.195 0.748 2.413 1.001 3.644 c -7.964 -5.852 -28.428 -17.665 -61.346 -15.385 c 0 0 17.267 3.367 25.932 14.01 c -10.674 4.993 -57.329 24.767 -91.44 6.442 c 21.828 18.799 54.407 23.505 81.34 7.155 c 4.271 -2.582 8.929 -4.875 13.961 -6.637 c 0.736 -0.259 1.484 -0.502 2.237 -0.738 c 0.237 -0.074 0.474 -0.146 0.713 -0.218 c 0.544 -0.164 1.093 -0.321 1.645 -0.473 c 8.227 -2.256 17.365 -3.091 27.393 -1.672 c 1.086 0.157 2.184 0.338 3.294 0.555 c 3.982 0.748 8.109 1.858 12.368 3.379 C 288.559 63.385 287.715 61.623 286.81 59.909 z" style="stroke: none; stroke-width: 1; stroke-dasharray: none; stroke-linecap: butt; stroke-linejoin: miter; stroke-miterlimit: 10; fill: #D8BA3A; fill-rule: nonzero; opacity: 1;" transform=" matrix(1 0 0 1 0 0) " stroke-linecap="round" />
  <path d="M 247.606 162.124 c -4.839 0.591 -15.795 0.652 -31.023 -6.95 c -20.911 -10.462 -24.869 -35.137 -53.466 -44.115 c -0.169 -0.048 -0.326 -0.109 -0.483 -0.157 c 14.926 4.404 30.54 12.694 46.492 26.293 C 221.651 147.873 234.586 156.018 247.606 162.124 z" style="stroke: none; stroke-width: 1; stroke-dasharray: none; stroke-linecap: butt; stroke-linejoin: miter; stroke-miterlimit: 10; fill: #E8D170; fill-rule: nonzero; opacity: 1;" transform=" matrix(1 0 0 1 0 0) " stroke-linecap="round" />
  <circle cx="209.745" cy="194.585" r="4.425" style="stroke: none; stroke-width: 1; stroke-dasharray: none; stroke-linecap: butt; stroke-linejoin: miter; stroke-miterlimit: 10; fill: #E8D170; fill-rule: nonzero; opacity: 1;" transform="  matrix(1 0 0 1 0 0) "/>
  <circle cx="256.415" cy="201.82500000000002" r="4.425" style="stroke: none; stroke-width: 1; stroke-dasharray: none; stroke-linecap: butt; stroke-linejoin: miter; stroke-miterlimit: 10; fill: #E8D170; fill-rule: nonzero; opacity: 1;" transform="  matrix(1 0 0 1 0 0) "/>
  <circle cx="238.705" cy="248.485" r="4.425" style="stroke: none; stroke-width: 1; stroke-dasharray: none; stroke-linecap: butt; stroke-linejoin: miter; stroke-miterlimit: 10; fill: #E8D170; fill-rule: nonzero; opacity: 1;" transform="  matrix(1 0 0 1 0 0) "/>
</g>
<g style="stroke: none; stroke-width: 1; stroke-dasharray: none; stroke-linecap: butt; stroke-linejoin: miter; stroke-miterlimit: 10; fill: none; fill-rule: nonzero; opacity: 1;" transform="translate(611.7199999999999 79.46000000000001) scale(0.99 0.99)" >
  <line x1="0" y1="-7" x2="0" y2="7" style="stroke: #38454F; stroke-width: 2; stroke-dasharray: none; stroke-linecap: round; stroke-linejoin: miter; stroke-miterlimit: 10; fill: none; fill-rule: nonzero; opacity: 1;" transform=" matrix(1 0 0 1 0 0) "/>
  <polygon points="43.01,7 31.01,7 31.01,1 43.01,1 39.01,4 " style="stroke: none; stroke-width: 1; stroke-dasharray: none; stroke-linecap: butt; stroke-linejoin: miter; stroke-miterlimit: 10; fill: #EFCE4A; fill-rule: nonzero; opacity: 1;" transform="  matrix(1 0 0 1 0 0) "/>
  <polygon points="51,59 30,15 9,59 " style="stroke: none; stroke-width: 1; stroke-dasharray: none; stroke-linecap: butt; stroke-linejoin: miter; stroke-miterlimit: 10; fill: #8A9A6D; fill-rule: nonzero; opacity: 1;" transform="  matrix(1 0 0 1 0 0) "/>
  <path d="M 23.118 58.973 l 6.963 -23.893 c 0.014 -0.031 0.059 -0.031 0.073 0 L 37.118 59 L 23.118 58.973 z" style="stroke: none; stroke-width: 1; stroke-dasharray: none; stroke-linecap: butt; stroke-linejoin: miter; stroke-miterlimit: 10; fill: #3A3F2D; fill-rule: nonzero; opacity: 1;" transform=" matrix(1 0 0 1 0 0) " stroke-linecap="round" />
  <line x1="-2.5" y1="2.5" x2="2.5" y2="-2.5" style="stroke: #556080; stroke-width: 2; stroke-dasharray: none; stroke-linecap: round; stroke-linejoin: miter; stroke-miterlimit: 10; fill: none; fill-rule: nonzero; opacity: 1;" transform=" matrix(1 0 0 1 0 0) "/>
  <line x1="-2.5" y1="-2.5" x2="2.5" y2="2.5" style="stroke: #556080; stroke-width: 2; stroke-dasharray: none; stroke-linecap: round; stroke-linejoin: miter; stroke-miterlimit: 10; fill: none; fill-rule: nonzero; opacity: 1;" transform=" matrix(1 0 0 1 0 0) "/>
  <path d="M 5 59 c 0 0 11.875 -38 25 -44" style="stroke: #556080; stroke-width: 2; stroke-dasharray: none; stroke-linecap: round; stroke-linejoin: miter; stroke-miterlimit: 10; fill: none; fill-rule: nonzero; opacity: 1;" transform=" matrix(1 0 0 1 0 0) " stroke-linecap="round" />
  <path d="M 55 59 c 0 0 -11.875 -38 -25 -44" style="stroke: #556080; stroke-width: 2; stroke-dasharray: none; stroke-linecap: round; stroke-linejoin: miter; stroke-miterlimit: 10; fill: none; fill-rule: nonzero; opacity: 1;" transform=" matrix(1 0 0 1 0 0) " stroke-linecap="round" />
  <line x1="2" y1="2.5" x2="-2" y2="-2.5" style="stroke: #556080; stroke-width: 2; stroke-dasharray: none; stroke-linecap: round; stroke-linejoin: miter; stroke-miterlimit: 10; fill: none; fill-rule: nonzero; opacity: 1;" transform=" matrix(1 0 0 1 0 0) "/>
  <line x1="-2" y1="2.5" x2="2" y2="-2.5" style="stroke: #556080; stroke-width: 2; stroke-dasharray: none; stroke-linecap: round; stroke-linejoin: miter; stroke-miterlimit: 10; fill: none; fill-rule: nonzero; opacity: 1;" transform=" matrix(1 0 0 1 0 0) "/>
  <path d="M 37.118 59 l 2.892 -10.846 c 0.674 -2.529 -0.194 -5.218 -2.219 -6.876 L 30.118 35 L 37.118 59 z" style="stroke: none; stroke-width: 1; stroke-dasharray: none; stroke-linecap: butt; stroke-linejoin: miter; stroke-miterlimit: 10; fill: #596344; fill-rule: nonzero; opacity: 1;" transform=" matrix(1 0 0 1 0 0) " stroke-linecap="round" />
  <circle cx="14" cy="58" r="1" style="stroke: none; stroke-width: 1; stroke-dasharray: none; stroke-linecap: butt; stroke-linejoin: miter; stroke-miterlimit: 10; fill: #C6D1B0; fill-rule: nonzero; opacity: 1;" transform="  matrix(1 0 0 1 0 0) "/>
  <circle cx="18" cy="58" r="1" style="stroke: none; stroke-width: 1; stroke-dasharray: none; stroke-linecap: butt; stroke-linejoin: miter; stroke-miterlimit: 10; fill: #C6D1B0; fill-rule: nonzero; opacity: 1;" transform="  matrix(1 0 0 1 0 0) "/>
  <circle cx="16" cy="56" r="1" style="stroke: none; stroke-width: 1; stroke-dasharray: none; stroke-linecap: butt; stroke-linejoin: miter; stroke-miterlimit: 10; fill: #C6D1B0; fill-rule: nonzero; opacity: 1;" transform="  matrix(1 0 0 1 0 0) "/>
  <circle cx="16" cy="52" r="1" style="stroke: none; stroke-width: 1; stroke-dasharray: none; stroke-linecap: butt; stroke-linejoin: miter; stroke-miterlimit: 10; fill: #C6D1B0; fill-rule: nonzero; opacity: 1;" transform="  matrix(1 0 0 1 0 0) "/>
  <circle cx="20" cy="52" r="1" style="stroke: none; stroke-width: 1; stroke-dasharray: none; stroke-linecap: butt; stroke-linejoin: miter; stroke-miterlimit: 10; fill: #C6D1B0; fill-rule: nonzero; opacity: 1;" transform="  matrix(1 0 0 1 0 0) "/>
  <circle cx="18" cy="50" r="1" style="stroke: none; stroke-width: 1; stroke-dasharray: none; stroke-linecap: butt; stroke-linejoin: miter; stroke-miterlimit: 10; fill: #C6D1B0; fill-rule: nonzero; opacity: 1;" transform="  matrix(1 0 0 1 0 0) "/>
  <circle cx="16" cy="48" r="1" style="stroke: none; stroke-width: 1; stroke-dasharray: none; stroke-linecap: butt; stroke-linejoin: miter; stroke-miterlimit: 10; fill: #C6D1B0; fill-rule: nonzero; opacity: 1;" transform="  matrix(1 0 0 1 0 0) "/>
  <circle cx="12" cy="56" r="1" style="stroke: none; stroke-width: 1; stroke-dasharray: none; stroke-linecap: butt; stroke-linejoin: miter; stroke-miterlimit: 10; fill: #C6D1B0; fill-rule: nonzero; opacity: 1;" transform="  matrix(1 0 0 1 0 0) "/>
  <circle cx="20" cy="56" r="1" style="stroke: none; stroke-width: 1; stroke-dasharray: none; stroke-linecap: butt; stroke-linejoin: miter; stroke-miterlimit: 10; fill: #C6D1B0; fill-rule: nonzero; opacity: 1;" transform="  matrix(1 0 0 1 0 0) "/>
  <circle cx="18" cy="54" r="1" style="stroke: none; stroke-width: 1; stroke-dasharray: none; stroke-linecap: butt; stroke-linejoin: miter; stroke-miterlimit: 10; fill: #C6D1B0; fill-rule: nonzero; opacity: 1;" transform="  matrix(1 0 0 1 0 0) "/>
  <circle cx="14" cy="54" r="1" style="stroke: none; stroke-width: 1; stroke-dasharray: none; stroke-linecap: butt; stroke-linejoin: miter; stroke-miterlimit: 10; fill: #C6D1B0; fill-rule: nonzero; opacity: 1;" transform="  matrix(1 0 0 1 0 0) "/>
  <circle cx="46" cy="58" r="1" style="stroke: none; stroke-width: 1; stroke-dasharray: none; stroke-linecap: butt; stroke-linejoin: miter; stroke-miterlimit: 10; fill: #C6D1B0; fill-rule: nonzero; opacity: 1;" transform="  matrix(1 0 0 1 0 0) "/>
  <circle cx="42" cy="58" r="1" style="stroke: none; stroke-width: 1; stroke-dasharray: none; stroke-linecap: butt; stroke-linejoin: miter; stroke-miterlimit: 10; fill: #C6D1B0; fill-rule: nonzero; opacity: 1;" transform="  matrix(1 0 0 1 0 0) "/>
  <circle cx="44" cy="56" r="1" style="stroke: none; stroke-width: 1; stroke-dasharray: none; stroke-linecap: butt; stroke-linejoin: miter; stroke-miterlimit: 10; fill: #C6D1B0; fill-rule: nonzero; opacity: 1;" transform="  matrix(1 0 0 1 0 0) "/>
  <circle cx="44" cy="52" r="1" style="stroke: none; stroke-width: 1; stroke-dasharray: none; stroke-linecap: butt; stroke-linejoin: miter; stroke-miterlimit: 10; fill: #C6D1B0; fill-rule: nonzero; opacity: 1;" transform="  matrix(1 0 0 1 0 0) "/>
  <circle cx="40" cy="52" r="1" style="stroke: none; stroke-width: 1; stroke-dasharray: none; stroke-linecap: butt; stroke-linejoin: miter; stroke-miterlimit: 10; fill: #C6D1B0; fill-rule: nonzero; opacity: 1;" transform="  matrix(1 0 0 1 0 0) "/>
  <circle cx="42" cy="50" r="1" style="stroke: none; stroke-width: 1; stroke-dasharray: none; stroke-linecap: butt; stroke-linejoin: miter; stroke-miterlimit: 10; fill: #C6D1B0; fill-rule: nonzero; opacity: 1;" transform="  matrix(1 0 0 1 0 0) "/>
  <circle cx="44" cy="48" r="1" style="stroke: none; stroke-width: 1; stroke-dasharray: none; stroke-linecap: butt; stroke-linejoin: miter; stroke-miterlimit: 10; fill: #C6D1B0; fill-rule: nonzero; opacity: 1;" transform="  matrix(1 0 0 1 0 0) "/>
  <circle cx="48" cy="56" r="1" style="stroke: none; stroke-width: 1; stroke-dasharray: none; stroke-linecap: butt; stroke-linejoin: miter; stroke-miterlimit: 10; fill: #C6D1B0; fill-rule: nonzero; opacity: 1;" transform="  matrix(1 0 0 1 0 0) "/>
  <circle cx="40" cy="56" r="1" style="stroke: none; stroke-width: 1; stroke-dasharray: none; stroke-linecap: butt; stroke-linejoin: miter; stroke-miterlimit: 10; fill: #C6D1B0; fill-rule: nonzero; opacity: 1;" transform="  matrix(1 0 0 1 0 0) "/>
  <circle cx="42" cy="54" r="1" style="stroke: none; stroke-width: 1; stroke-dasharray: none; stroke-linecap: butt; stroke-linejoin: miter; stroke-miterlimit: 10; fill: #C6D1B0; fill-rule: nonzero; opacity: 1;" transform="  matrix(1 0 0 1 0 0) "/>
  <circle cx="46" cy="54" r="1" style="stroke: none; stroke-width: 1; stroke-dasharray: none; stroke-linecap: butt; stroke-linejoin: miter; stroke-miterlimit: 10; fill: #C6D1B0; fill-rule: nonzero; opacity: 1;" transform="  matrix(1 0 0 1 0 0) "/>
  <path d="M 30.118 35 l -7 24 l -2.892 -10.846 c -0.674 -2.529 0.194 -5.218 2.219 -6.876 L 30.118 35" style="stroke: none; stroke-width: 1; stroke-dasharray: none; stroke-linecap: butt; stroke-linejoin: miter; stroke-miterlimit: 10; fill: #596344; fill-rule: nonzero; opacity: 1;" transform=" matrix(1 0 0 1 0 0) " stroke-linecap="round" />
</g>
<g style="stroke: none; stroke-width: 1; stroke-dasharray: none; stroke-linecap: butt; stroke-linejoin: miter; stroke-miterlimit: 10; fill: none; fill-rule: nonzero; opacity: 1;" transform="translate(10 10) scale(0.35 0.35)" >
  <path d="M 516.727 266.696 c -0.665 -34.825 -8.221 -69.54 -22.175 -101.283 c -13.908 -31.771 -34.094 -60.551 -58.876 -84.333 c -24.767 -23.8 -54.139 -42.615 -85.929 -55.027 c -31.773 -12.46 -65.937 -18.412 -99.687 -17.69 c -33.755 0.668 -67.36 8.007 -98.091 21.539 c -30.754 13.488 -58.615 33.058 -81.632 57.071 c -23.033 24.001 -41.229 52.452 -53.222 83.229 C 5.077 200.962 -0.66 234.013 0.06 266.696 c 0.67 32.688 7.793 65.182 20.903 94.899 c 13.067 29.738 32.019 56.681 55.266 78.931 c 23.234 22.268 50.766 39.846 80.528 51.417 c 29.749 11.616 61.69 17.136 93.303 16.419 c 31.62 -0.671 63.001 -7.58 91.707 -20.268 c 28.724 -12.646 54.747 -30.979 76.231 -53.461 c 21.503 -22.469 38.461 -49.08 49.611 -77.827 c 6.79 -17.427 11.396 -35.624 13.824 -54.062 c 0.649 0.037 1.302 0.063 1.96 0.063 c 18.409 0 33.333 -14.923 33.333 -33.333 c 0 -0.936 -0.049 -1.861 -0.124 -2.777 L 516.727 266.696 L 516.727 266.696 z M 463.762 355.21 c -12.226 27.71 -29.94 52.812 -51.655 73.532 c -21.703 20.732 -47.396 37.076 -75.127 47.807 c -27.724 10.77 -57.443 15.859 -86.919 15.146 c -29.481 -0.677 -58.644 -7.154 -85.323 -18.997 c -26.692 -11.806 -50.877 -28.901 -70.83 -49.849 c -19.968 -20.938 -35.691 -45.711 -46.001 -72.427 c -10.349 -26.712 -15.223 -55.321 -14.512 -83.728 c 0.678 -28.413 6.941 -56.465 18.361 -82.131 c 11.384 -25.677 27.863 -48.943 48.045 -68.13 c 20.172 -19.202 44.026 -34.307 69.726 -44.195 c 25.697 -9.928 53.195 -14.587 80.534 -13.877 c 27.343 0.68 54.286 6.728 78.939 17.726 c 24.662 10.963 47.008 26.824 65.429 46.241 c 18.436 19.405 32.922 42.341 42.391 67.025 c 9.504 24.684 13.948 51.072 13.241 77.342 h 0.125 c -0.076 0.916 -0.125 1.841 -0.125 2.777 c 0 17.193 13.018 31.34 29.732 33.137 C 476.551 320.747 471.184 338.453 463.762 355.21 z" style="stroke: none; stroke-width: 1; stroke-dasharray: none; stroke-linecap: butt; stroke-linejoin: miter; stroke-miterlimit: 10; fill: #ffff00; fill-rule: nonzero; opacity: 1;" transform="" stroke-linecap="round" />
</g>
<g style="stroke: none; stroke-width: 1; stroke-dasharray: none; stroke-linecap: butt; stroke-linejoin: miter; stroke-miterlimit: 10; fill: none; fill-rule: nonzero; opacity: 1;" transform="translate(50.830000000000034 88.99000000000001) scale(0.18 0.18)" >
  <polygon points="379.96,388.58 256,434.31 132.04,388.58 8.08,434.31 8.08,70.44 132.04,24.71 256,70.44 379.96,24.71 503.92,70.44 503.92,434.31 " style="stroke: none; stroke-width: 1; stroke-dasharray: none; stroke-linecap: butt; stroke-linejoin: miter; stroke-miterlimit: 10; fill: #8BAF73; fill-rule: nonzero; opacity: 1;" transform="  matrix(1 0 0 1 0 0) "/>
  <polygon points="256,70.44 256,434.31 379.96,388.58 379.96,24.71 " style="stroke: none; stroke-width: 1; stroke-dasharray: none; stroke-linecap: butt; stroke-linejoin: miter; stroke-miterlimit: 10; fill: #68844E; fill-rule: nonzero; opacity: 1;" transform="  matrix(1 0 0 1 0 0) "/>
  <polygon points="8.08,70.44 8.08,434.31 132.04,388.58 132.04,24.71 " style="stroke: none; stroke-width: 1; stroke-dasharray: none; stroke-linecap: butt; stroke-linejoin: miter; stroke-miterlimit: 10; fill: #68844E; fill-rule: nonzero; opacity: 1;" transform="  matrix(1 0 0 1 0 0) "/>
  <path d="M 132.042 327.403 c -14.582 -7.449 -31.054 -11.661 -48.505 -11.661 c -29.38 0 -56.01 0 -75.453 0 v 118.568 l 123.958 -45.729 l 58.307 21.509 C 185.521 373.844 163.083 343.261 132.042 327.403 z" style="stroke: none; stroke-width: 1; stroke-dasharray: none; stroke-linecap: butt; stroke-linejoin: miter; stroke-miterlimit: 10; fill: #78B9EB; fill-rule: nonzero; opacity: 1;" transform=" matrix(1 0 0 1 0 0) " stroke-linecap="round" />
  <path d="M 132.042 327.403 v 61.178 l 58.307 21.509 C 185.521 373.844 163.083 343.261 132.042 327.403 z" style="stroke: none; stroke-width: 1; stroke-dasharray: none; stroke-linecap: butt; stroke-linejoin: miter; stroke-miterlimit: 10; fill: #78B9EB; fill-rule: nonzero; opacity: 1;" transform=" matrix(1 0 0 1 0 0) " stroke-linecap="round" />
  <path d="M 83.537 315.742 c -29.38 0 -56.01 0 -75.453 0 v 118.568 l 123.958 -45.729 v -61.178 C 117.46 319.955 100.988 315.742 83.537 315.742 z" style="stroke: none; stroke-width: 1; stroke-dasharray: none; stroke-linecap: butt; stroke-linejoin: miter; stroke-miterlimit: 10; fill: #5991AD; fill-rule: nonzero; opacity: 1;" transform=" matrix(1 0 0 1 0 0) " stroke-linecap="round" />
  <path d="M 503.916 430.636 c -1.12 -1.402 -2.321 -2.762 -3.618 -4.06 L 377.551 303.83 l -7.622 7.622 l -7.699 -7.699 c 21.946 -44.338 14.484 -99.654 -22.389 -136.525 c -6.465 -6.464 -13.547 -12.085 -21.109 -16.818 c -1.827 -7.599 -5.33 -16.894 -12.016 -25.793 c -10.639 -14.158 -26.253 -22.582 -44.425 -24.16 h -12.577 c -18.172 1.578 -33.787 10.002 -44.425 24.16 c -6.686 8.9 -10.189 18.194 -12.016 25.793 c -7.563 4.733 -14.646 10.354 -21.111 16.818 c -46.23 46.23 -46.23 121.451 0.001 167.681 c 22.394 22.394 52.169 34.728 83.84 34.728 c 18.696 0 36.73 -4.301 52.977 -12.43 l 7.598 7.598 l -7.622 7.622 l 30.936 30.936 l 40.069 -14.781 l 123.958 45.729 v -3.672 H 503.916 z M 225.49 281.577 c -12.207 -12.207 -15.548 -29.967 -10.038 -45.221 c 9.593 17.813 19.18 32.372 22.686 37.561 l 13.574 20.089 C 241.807 293.034 232.62 288.708 225.49 281.577 z M 286.509 281.577 c -7.129 7.13 -16.316 11.458 -26.221 12.428 l 13.574 -20.089 c 3.506 -5.189 13.093 -19.749 22.686 -37.562 C 302.057 251.611 298.716 269.37 286.509 281.577 z" style="stroke: none; stroke-width: 1; stroke-dasharray: none; stroke-linecap: butt; stroke-linejoin: miter; stroke-miterlimit: 10; fill: #68844E; fill-rule: nonzero; opacity: 1;" transform=" matrix(1 0 0 1 0 0) " stroke-linecap="round" />
  <path d="M 335.141 307.153 c -3.115 4.385 -6.614 8.581 -10.545 12.512 c -3.864 3.864 -7.983 7.312 -12.287 10.388 l 34.752 34.752 l 22.865 -22.865 L 335.141 307.153 z" style="stroke: none; stroke-width: 1; stroke-dasharray: none; stroke-linecap: butt; stroke-linejoin: miter; stroke-miterlimit: 10; fill: #ACABB1; fill-rule: nonzero; opacity: 1;" transform=" matrix(1 0 0 1 0 0) " stroke-linecap="round" />
  <path d="M 324.597 182.471 c -37.885 -37.885 -99.309 -37.885 -137.193 0 s -37.885 99.309 0 137.193 s 99.309 37.885 137.193 0 S 362.482 220.356 324.597 182.471 z M 301.752 296.821 c -12.22 12.221 -28.469 18.952 -45.752 18.952 s -33.532 -6.73 -45.753 -18.952 c -25.227 -25.228 -25.227 -66.278 0.001 -91.506 c 12.22 -12.221 28.469 -18.952 45.752 -18.952 s 33.532 6.73 45.753 18.952 C 326.98 230.543 326.98 271.593 301.752 296.821 z" style="stroke: none; stroke-width: 1; stroke-dasharray: none; stroke-linecap: butt; stroke-linejoin: miter; stroke-miterlimit: 10; fill: #D8D7DA; fill-rule: nonzero; opacity: 1;" transform=" matrix(1 0 0 1 0 0) " stroke-linecap="round" />
  <path d="M 192.458 177.798 c 1.948 10.989 6.203 23.097 11.401 34.95 c 1.911 -2.598 4.04 -5.084 6.389 -7.432 c 12.22 -12.221 28.469 -18.952 45.752 -18.952 s 33.532 6.73 45.753 18.952 c 2.349 2.349 4.476 4.834 6.388 7.432 c 5.198 -11.853 9.453 -23.961 11.401 -34.95 C 283.153 146.18 228.847 146.18 192.458 177.798 z" style="stroke: none; stroke-width: 1; stroke-dasharray: none; stroke-linecap: butt; stroke-linejoin: miter; stroke-miterlimit: 10; fill: #ACABB1; fill-rule: nonzero; opacity: 1;" transform=" matrix(1 0 0 1 0 0) " stroke-linecap="round" />
  <path d="M 299.116 164.837 c -0.55 -15.234 -10.779 -43.116 -43.116 -43.116 s -42.566 27.882 -43.116 43.116 C 211.746 196.358 256 261.848 256 261.848 S 300.254 196.357 299.116 164.837 z M 254.922 178.85 c -8.929 0 -16.168 -7.239 -16.168 -16.168 s 7.239 -16.168 16.168 -16.168 c 8.929 0 16.168 7.239 16.168 16.168 S 263.851 178.85 254.922 178.85 z" style="stroke: none; stroke-width: 1; stroke-dasharray: none; stroke-linecap: butt; stroke-linejoin: miter; stroke-miterlimit: 10; fill: #ED7263; fill-rule: nonzero; opacity: 0;" transform=" matrix(1 0 0 1 0 0) " stroke-linecap="round" />
  <path d="M 485.053 479.929 L 485.053 479.929 c -10.523 10.523 -27.586 10.523 -38.109 0 L 339.441 372.427 l 38.109 -38.109 L 485.053 441.82 C 495.576 452.344 495.576 469.406 485.053 479.929 z" style="stroke: none; stroke-width: 1; stroke-dasharray: none; stroke-linecap: butt; stroke-linejoin: miter; stroke-miterlimit: 10; fill: #A36D41; fill-rule: nonzero; opacity: 1;" transform=" matrix(1 0 0 1 0 0) " stroke-linecap="round" />
  <polygon points="379.96,16.09 256,61.82 132.04,16.09 0,64.81 0,445.91 132.04,397.2 256,442.93 342.69,410.95 337.09,395.78 256,425.69 132.04,379.96 16.17,422.71 16.17,76.07 123.96,36.31 123.96,121.72 140.13,121.72 140.13,36.31 256,79.06 371.87,36.31 371.87,121.72 388.04,121.72 388.04,36.31 495.83,76.07 495.83,423.53 512,423.53 512,64.81 " style="stroke: none; stroke-width: 1; stroke-dasharray: none; stroke-linecap: butt; stroke-linejoin: miter; stroke-miterlimit: 10; fill: rgb(0,0,0); fill-rule: nonzero; opacity: 0;" transform="  matrix(1 0 0 1 0 0) "/>
  <path d="M 377.551 322.885 l -7.622 7.622 l -24.412 -24.412 c 24.885 -40.485 19.835 -94.301 -15.203 -129.339 c -1.594 -1.596 -3.333 -3.205 -5.468 -5.06 L 314.24 183.9 c 1.844 1.603 3.319 2.965 4.641 4.289 c 31.116 31.116 34.287 79.731 9.557 114.439 c -0.608 0.85 -1.231 1.687 -1.865 2.513 c -0.191 0.249 -0.382 0.497 -0.576 0.744 c -0.583 0.746 -1.177 1.481 -1.781 2.204 c -0.359 0.429 -0.728 0.853 -1.096 1.276 c -0.478 0.552 -0.954 1.105 -1.442 1.642 c -0.91 0.995 -1.836 1.981 -2.798 2.944 c -0.959 0.959 -1.942 1.882 -2.934 2.789 c -0.501 0.456 -1.016 0.901 -1.53 1.348 c -0.459 0.401 -0.921 0.8 -1.386 1.189 c -0.674 0.563 -1.356 1.117 -2.049 1.662 c -0.292 0.23 -0.585 0.455 -0.88 0.68 c -0.783 0.6 -1.57 1.194 -2.375 1.771 c -15.406 11.032 -33.56 16.566 -51.727 16.564 c -22.769 -0.002 -45.546 -8.669 -62.88 -26.004 c -34.673 -34.673 -34.673 -91.089 0 -125.762 c 1.323 -1.323 2.797 -2.685 4.641 -4.288 l -10.606 -12.203 c -2.135 1.856 -3.874 3.463 -5.468 5.059 c -40.976 40.976 -40.976 107.65 0 148.627 c 20.489 20.488 47.402 30.732 74.313 30.732 c 19.203 0 38.394 -5.245 55.263 -15.676 l 24.368 24.368 l -7.622 7.622 l 113.219 113.219 c 6.617 6.617 15.414 10.26 24.77 10.26 c 9.358 0 18.155 -3.643 24.771 -10.26 c 13.658 -13.659 13.658 -35.883 0 -49.542 L 377.551 322.885 z M 324.474 330.784 c 0.318 -0.273 0.622 -0.558 0.937 -0.834 c 0.509 -0.447 1.018 -0.894 1.519 -1.353 c 1.138 -1.039 2.256 -2.092 3.336 -3.171 c 0.015 -0.015 0.031 -0.029 0.046 -0.044 c 0.017 -0.017 0.032 -0.035 0.049 -0.051 c 1.083 -1.085 2.144 -2.209 3.187 -3.353 c 0.5 -0.546 0.983 -1.103 1.469 -1.657 c 0.289 -0.331 0.587 -0.649 0.872 -0.984 l 22.605 22.605 l -11.432 11.432 L 324.474 330.784 z M 479.335 474.213 c -3.562 3.562 -8.299 5.524 -13.338 5.524 c -5.038 0 -9.775 -1.962 -13.338 -5.524 L 350.873 372.428 l 26.677 -26.677 l 101.786 101.786 C 486.691 454.891 486.691 466.859 479.335 474.213 z" style="stroke: none; stroke-width: 1; stroke-dasharray: none; stroke-linecap: butt; stroke-linejoin: miter; stroke-miterlimit: 10; fill: rgb(0,0,0); fill-rule: nonzero; opacity: 0;" transform=" matrix(1 0 0 1 0 0) " stroke-linecap="round" />
  <polygon points="48.64,243.4 53.76,258.74 123.05,235.64 133.5,172.92 169.77,172.92 169.77,156.75 86.23,156.75 45.27,126.03 35.57,138.97 80.84,172.92 117.11,172.92 108.7,223.38 " style="stroke: none; stroke-width: 1; stroke-dasharray: none; stroke-linecap: butt; stroke-linejoin: miter; stroke-miterlimit: 10; fill: rgb(0,0,0); fill-rule: nonzero; opacity: 0;" transform="  matrix(1 0 0 1 0 0) "/>
  <polygon points="458.11,326.52 458.11,277.93 404.21,256.37 404.21,221.43 374.57,221.43 374.57,237.59 388.04,237.59 388.04,267.32 441.94,288.88 441.94,326.52 " style="stroke: none; stroke-width: 1; stroke-dasharray: none; stroke-linecap: butt; stroke-linejoin: miter; stroke-miterlimit: 10; fill: rgb(0,0,0); fill-rule: nonzero; opacity: 0;" transform="  matrix(1 0 0 1 0 0) "/>
  <polygon points="476.43,128.19 466.73,115.25 425.77,145.97 324.22,145.97 324.22,162.14 390.65,162.14 411.46,214.17 468.58,237.02 474.58,222 423.9,201.73 408.07,162.14 431.16,162.14 " style="stroke: none; stroke-width: 1; stroke-dasharray: none; stroke-linecap: butt; stroke-linejoin: miter; stroke-miterlimit: 10; fill: rgb(0,0,0); fill-rule: nonzero; opacity: 0;" transform="  matrix(1 0 0 1 0 0) "/>
  <path d="M 256 113.637 c -36.211 0 -50.455 30.445 -51.195 50.908 c -1.198 33.196 39.815 94.901 44.497 101.829 l 6.698 9.912 l 6.698 -9.912 c 4.681 -6.927 45.695 -68.632 44.497 -101.829 l 0 0 C 306.455 144.081 292.211 113.637 256 113.637 z M 255.999 246.96 c -13.956 -22.368 -35.759 -61.806 -35.036 -81.831 c 0.221 -6.109 2.445 -15.282 8.022 -22.706 c 6.291 -8.372 15.38 -12.618 27.015 -12.618 c 11.635 0 20.725 4.245 27.015 12.618 c 5.578 7.423 7.801 16.596 8.022 22.706 l 0 0 C 291.759 185.132 269.953 224.584 255.999 246.96 z" style="stroke: none; stroke-width: 1; stroke-dasharray: none; stroke-linecap: butt; stroke-linejoin: miter; stroke-miterlimit: 10; fill: rgb(0,0,0); fill-rule: nonzero; opacity: 0;" transform=" matrix(1 0 0 1 0 0) " stroke-linecap="round" />
  <path d="M 254.922 138.429 c -13.372 0 -24.253 10.879 -24.253 24.253 s 10.88 24.253 24.253 24.253 c 13.372 0 24.253 -10.879 24.253 -24.253 S 268.294 138.429 254.922 138.429 z M 254.922 170.765 c -4.458 0 -8.084 -3.626 -8.084 -8.084 s 3.626 -8.084 8.084 -8.084 c 4.458 0 8.084 3.626 8.084 8.084 S 259.38 170.765 254.922 170.765 z" style="stroke: none; stroke-width: 1; stroke-dasharray: none; stroke-linecap: butt; stroke-linejoin: miter; stroke-miterlimit: 10; fill: rgb(0,0,0); fill-rule: nonzero; opacity: 0;" transform=" matrix(1 0 0 1 0 0) " stroke-linecap="round" />
  <path d="M 183.427 256.266 c 1.24 17.47 8.735 33.903 21.103 46.272 c 13.749 13.747 32.027 21.319 51.469 21.319 s 37.721 -7.571 51.469 -21.32 c 12.369 -12.369 19.863 -28.801 21.103 -46.272 c 1.228 -17.286 -3.717 -34.443 -13.92 -48.309 l -13.023 9.584 c 16.427 22.323 14.022 53.95 -5.593 73.566 C 285.342 301.8 271.124 307.689 256 307.689 s -29.342 -5.89 -40.037 -16.583 c -19.614 -19.616 -22.019 -51.243 -5.592 -73.565 l -13.023 -9.584 C 187.144 221.823 182.2 238.979 183.427 256.266 z" style="stroke: none; stroke-width: 1; stroke-dasharray: none; stroke-linecap: butt; stroke-linejoin: miter; stroke-miterlimit: 10; fill: rgb(0,0,0); fill-rule: nonzero; opacity: 0;" transform=" matrix(1 0 0 1 0 0) " stroke-linecap="round" />
  <path d="M 29.642 323.827 h 53.895 c 41.181 0 77.585 25.05 92.741 63.818 l 15.059 -5.887 c -8.443 -21.596 -22.923 -40.028 -41.871 -53.302 c -19.42 -13.605 -42.218 -20.797 -65.929 -20.797 H 29.642 C 29.642 307.658 29.642 323.827 29.642 323.827 z" style="stroke: none; stroke-width: 1; stroke-dasharray: none; stroke-linecap: butt; stroke-linejoin: miter; stroke-miterlimit: 10; fill: rgb(0,0,0); fill-rule: nonzero; opacity: 0;" transform=" matrix(1 0 0 1 0 0) " stroke-linecap="round" />
  <rect x="401.26" y="396.31" rx="0" ry="0" width="16.17" height="16.17" style="stroke: none; stroke-width: 1; stroke-dasharray: none; stroke-linecap: butt; stroke-linejoin: miter; stroke-miterlimit: 10; fill: rgb(0,0,0); fill-rule: nonzero; opacity: 0;" transform=" matrix(-0.7071 0.7071 -0.7071 -0.7071 984.744 400.8964) "/>
  <rect x="424.12" y="419.24" rx="0" ry="0" width="16.17" height="16.17" style="stroke: none; stroke-width: 1; stroke-dasharray: none; stroke-linecap: butt; stroke-linejoin: miter; stroke-miterlimit: 10; fill: rgb(0,0,0); fill-rule: nonzero; opacity: 0;" transform=" matrix(-0.7071 0.7071 -0.7071 -0.7071 1039.9854 423.8627) "/>
  <rect x="446.99" y="442.07" rx="0" ry="0" width="16.17" height="16.17" style="stroke: none; stroke-width: 1; stroke-dasharray: none; stroke-linecap: butt; stroke-linejoin: miter; stroke-miterlimit: 10; fill: rgb(0,0,0); fill-rule: nonzero; opacity: 0;" transform=" matrix(0.7071 0.7071 -0.7071 0.7071 451.5962 -189.9417) "/>
</g>
<g style="stroke: none; stroke-width: 1; stroke-dasharray: none; stroke-linecap: butt; stroke-linejoin: miter; stroke-miterlimit: 10; fill: none; fill-rule: nonzero; opacity: 1;" transform="translate(52.269999999999975 90.30000000000001) scale(0.45 0.45)" >
  <path d="M 77.675 104.14 s -18.015 15.646 -35.567 0 c 0 0 16.115 9.002 35.567 0 z M 115.771 104.14 s -18.012 15.646 -35.563 0 c 0 0 16.126 9.002 35.563 0 z M 153.871 104.14 s -18.012 15.646 -35.562 0 c 0.001 0 16.121 9.002 35.562 0 z M 191.973 104.14 s -18.013 15.646 -35.563 0 c 0 0 16.131 9.002 35.563 0 z M 57.353 120.17 s -18.021 15.644 -35.562 0 c 0 0 16.115 8.999 35.562 0 z M 95.453 120.17 s -18.021 15.644 -35.567 0 c 0 0 16.129 8.999 35.567 0 z M 133.556 120.17 s -18.02 15.644 -35.568 0 c 0 0 16.131 8.999 35.568 0 z M 171.654 120.17 s -18.016 15.644 -35.565 0 c 0 0 16.13 8.999 35.565 0 z M 77.675 137.521 s -18.015 15.642 -35.567 0 c 0 0 16.115 9.001 35.567 0 z M 115.771 137.521 s -18.012 15.642 -35.563 0 c 0 0 16.126 9.001 35.563 0 z M 153.871 137.521 s -18.012 15.642 -35.562 0 c 0.001 0 16.121 9.001 35.562 0 z" style="stroke: none; stroke-width: 1; stroke-dasharray: none; stroke-linecap: butt; stroke-linejoin: miter; stroke-miterlimit: 10; fill: #00578E; fill-rule: nonzero; opacity: 0;" transform="" stroke-linecap="round" />
  <path d="M 117.729 126.986 s -13.972 12.136 -27.579 0 c 0 0 12.506 6.988 27.579 0 z" style="stroke: none; stroke-width: 1; stroke-dasharray: none; stroke-linecap: butt; stroke-linejoin: miter; stroke-miterlimit: 10; fill: #00578E; fill-rule: nonzero; opacity: 0;" transform="" stroke-linecap="round" />
  <path d="M 64.047 133.333 c 1.654 -1.468 4.491 -6.919 5.181 -7.331 c 0.678 -0.406 1.688 0.178 1.798 -0.277 c 0.082 -0.473 -0.1 -0.668 -0.1 -0.668 c 0.828 0.195 0.655 -0.595 0.655 -0.595 l 0.331 0.335 l 1.404 -1.447 c 6.802 5.729 15.041 8.811 23.404 9.284 l 0.023 2.012 h 0.466 s -0.665 0.433 0.068 0.867 c 0 0 -0.259 0 -0.512 0.402 c -0.257 0.417 0.885 0.699 1.109 1.468 c 0.207 0.751 -1.451 6.663 -1.267 8.861 c 0.182 2.19 2.511 2.485 3.183 2.485 c 0.666 -0.021 2.987 -0.384 3.109 -2.583 c 0.124 -2.189 -1.707 -8.052 -1.516 -8.819 c 0.191 -0.78 1.322 -1.073 1.063 -1.479 c -0.261 -0.404 -0.527 -0.404 -0.527 -0.404 c 0.719 -0.452 0.039 -0.869 0.039 -0.869 l 0.466 -0.017 l -0.031 -2.014 a 39.796 39.796 0 0 0 23.114 -9.984 l 1.44 1.402 l 0.335 -0.335 s -0.156 0.787 0.649 0.57 c 0 0 -0.178 0.196 -0.057 0.67 c 0.106 0.451 1.102 -0.156 1.802 0.228 c 0.701 0.402 3.699 5.753 5.374 7.176 c 1.696 1.408 3.549 -0.021 4.011 -0.493 c 0.462 -0.485 1.842 -2.386 0.373 -4.034 c -1.468 -1.634 -6.909 -4.483 -7.314 -5.162 c -0.4 -0.678 0.172 -1.694 -0.294 -1.807 c -0.473 -0.085 -0.651 0.09 -0.651 0.09 c 0.188 -0.817 -0.591 -0.64 -0.591 -0.64 l 0.325 -0.335 l -1.448 -1.408 c 5.729 -6.79 8.812 -15.032 9.272 -23.4 l 2.031 -0.026 l -0.019 -0.457 s 0.452 0.662 0.886 -0.076 c 0 0 0 0.267 0.405 0.512 c 0.405 0.254 0.68 -0.886 1.451 -1.103 c 0.768 -0.228 6.681 1.446 8.868 1.258 c 2.197 -0.175 2.496 -2.512 2.474 -3.182 c 0 -0.68 -0.362 -2.977 -2.563 -3.104 c -2.196 -0.118 -8.05 1.713 -8.838 1.518 c -0.77 -0.188 -1.075 -1.323 -1.471 -1.066 c -0.404 0.266 -0.394 0.521 -0.394 0.521 c -0.452 -0.707 -0.896 -0.027 -0.896 -0.027 v -0.472 l -2.013 0.039 c -0.728 -8.35 -4.061 -16.5 -9.983 -23.123 l 1.411 -1.45 l -0.338 -0.324 s 0.79 0.156 0.573 -0.662 c 0 0 0.178 0.189 0.65 0.071 c 0.473 -0.11 -0.139 -1.104 0.245 -1.806 c 0.389 -0.697 5.747 -3.694 7.168 -5.368 c 1.419 -1.697 -0.01 -3.55 -0.494 -4.023 c -0.493 -0.456 -2.386 -1.844 -4.021 -0.383 c -1.637 1.485 -4.484 6.915 -5.164 7.33 c -0.689 0.406 -1.717 -0.167 -1.795 0.296 c -0.116 0.473 0.078 0.65 0.078 0.65 c -0.817 -0.196 -0.651 0.59 -0.651 0.59 l -0.322 -0.333 l -1.412 1.45 a 39.597 39.597 0 0 0 -23.406 -9.267 l -0.024 -2.029 h -0.473 s 0.675 -0.434 -0.061 -0.868 c 0 0 0.252 0 0.519 -0.405 c 0.241 -0.412 -0.893 -0.679 -1.109 -1.448 c -0.221 -0.767 1.454 -6.685 1.262 -8.871 c -0.188 -2.197 -2.514 -2.492 -3.176 -2.492 c -0.678 0.018 -3.003 0.383 -3.121 2.582 c -0.124 2.197 1.724 8.053 1.524 8.838 c -0.202 0.762 -1.328 1.067 -1.063 1.461 c 0.267 0.402 0.523 0.402 0.523 0.402 c -0.714 0.456 -0.046 0.889 -0.046 0.889 h -0.462 l 0.024 2.009 a 39.885 39.885 0 0 0 -23.103 9.984 L 70.97 61.72 l -0.332 0.334 s 0.153 -0.79 -0.665 -0.572 c 0 0 0.171 -0.195 0.068 -0.651 c -0.103 -0.474 -1.11 0.138 -1.802 -0.246 c -0.69 -0.385 -3.699 -5.756 -5.384 -7.175 c -1.679 -1.413 -3.531 0.018 -4 0.513 c -0.472 0.472 -1.852 2.374 -0.383 4.009 c 1.461 1.648 6.908 4.484 7.32 5.167 c 0.41 0.68 -0.177 1.715 0.289 1.803 c 0.473 0.101 0.654 -0.087 0.654 -0.087 c -0.182 0.817 0.59 0.639 0.59 0.639 l -0.321 0.338 l 1.452 1.418 a 39.696 39.696 0 0 0 -9.292 23.389 l -2.005 0.039 v 0.462 s -0.444 -0.679 -0.871 0.062 c 0 0 0 -0.267 -0.419 -0.513 c -0.405 -0.249 -0.68 0.896 -1.451 1.104 c -0.758 0.227 -6.666 -1.451 -8.868 -1.263 c -2.189 0.177 -2.488 2.514 -2.48 3.182 c 0.021 0.684 0.376 2.997 2.57 3.126 c 2.197 0.117 8.062 -1.735 8.829 -1.537 c 0.779 0.206 1.085 1.321 1.483 1.063 c 0.404 -0.268 0.394 -0.523 0.394 -0.523 c 0.456 0.713 0.882 0.052 0.882 0.052 l 0.01 0.454 l 2.016 -0.032 a 39.638 39.638 0 0 0 9.985 23.115 l -1.405 1.447 l 0.342 0.328 s -0.792 -0.161 -0.587 0.668 c 0 0 -0.18 -0.18 -0.65 -0.068 c -0.455 0.097 0.146 1.114 -0.238 1.792 c -0.395 0.7 -5.75 3.697 -7.165 5.372 c -1.423 1.697 0.014 3.55 0.498 4.022 c 0.482 0.471 2.374 1.85 4.013 0.382 z m 20.192 -27.899 c -1.973 0.63 -2.83 2.146 -3.136 2.914 a 23.288 23.288 0 0 1 -5.618 -13.088 c 0.793 0.297 2.437 0.68 4.213 -0.316 c 2.287 -1.262 5.154 -0.088 5.683 0.316 a 13.91 13.91 0 0 0 2.542 5.864 c -0.096 0.68 -1.215 3.526 -3.684 4.31 z m 2.126 -27.305 a 4.917 4.917 0 0 0 -2.685 -3.036 a 23.26 23.26 0 0 1 12.758 -5.412 c -0.259 0.861 -0.462 2.328 0.409 3.915 c 1.27 2.269 0.1 5.145 -0.302 5.667 a 13.985 13.985 0 0 0 -5.868 2.532 c -0.678 -0.088 -3.522 -1.201 -4.312 -3.666 z m 27.304 2.12 c 1.672 -0.523 2.532 -1.676 2.951 -2.505 a 23.458 23.458 0 0 1 5.479 12.576 a 4.93 4.93 0 0 0 -3.886 0.414 c -2.283 1.261 -5.155 0.089 -5.679 -0.294 a 13.741 13.741 0 0 0 -2.539 -5.865 c 0.097 -0.7 1.214 -3.548 3.674 -4.326 z m -9.93 4.306 c 4.572 2.643 6.144 8.486 3.497 13.059 a 9.57 9.57 0 0 1 -13.06 3.511 c -4.572 -2.631 -6.133 -8.486 -3.499 -13.06 c 2.64 -4.574 8.489 -6.142 13.062 -3.51 z m -2.376 21.863 c 2.115 -0.377 4.131 -1.223 5.863 -2.535 c 0.689 0.09 3.542 1.201 4.322 3.688 c 0.587 1.813 1.914 2.669 2.718 3.036 a 23.229 23.229 0 0 1 -12.882 5.686 a 4.999 4.999 0 0 0 -0.316 -4.189 c -1.265 -2.287 -0.089 -5.163 0.295 -5.686 z m 15.815 1.152 c -0.401 -0.807 -1.29 -2.079 -3.104 -2.603 c -2.514 -0.719 -3.722 -3.577 -3.804 -4.228 c 0.224 -0.334 0.432 -0.66 0.633 -0.996 a 13.583 13.583 0 0 0 1.703 -4.938 c 0.551 -0.424 3.359 -1.654 5.663 -0.451 a 4.944 4.944 0 0 0 3.919 0.273 a 23.41 23.41 0 0 1 -5.01 12.943 z m -3.684 -32.84 a 4.875 4.875 0 0 0 -2.406 3.004 c -0.726 2.515 -3.581 3.715 -4.234 3.806 c -0.32 -0.229 -0.655 -0.445 -1 -0.651 a 13.619 13.619 0 0 0 -4.941 -1.704 c -0.42 -0.544 -1.643 -3.353 -0.455 -5.639 a 5.016 5.016 0 0 0 0.305 -3.912 a 23.443 23.443 0 0 1 12.731 5.096 z m -32.765 3.372 a 4.924 4.924 0 0 0 3.125 2.609 c 2.51 0.721 3.698 3.587 3.799 4.231 c -0.222 0.334 -0.449 0.657 -0.641 1.013 a 13.803 13.803 0 0 0 -1.71 4.918 c -0.542 0.444 -3.35 1.668 -5.657 0.474 c -1.796 -0.926 -3.41 -0.503 -4.204 -0.186 a 23.296 23.296 0 0 1 5.288 -13.059 z m 3.283 33.054 a 4.908 4.908 0 0 0 2.82 -3.214 c 0.721 -2.509 3.587 -3.716 4.231 -3.804 c 0.327 0.228 0.657 0.456 0.995 0.651 A 14.006 14.006 0 0 0 97 106.507 c 0.42 0.529 1.647 3.348 0.456 5.646 c -0.935 1.802 -0.498 3.438 -0.178 4.226 a 23.323 23.323 0 0 1 -13.266 -5.223 z" style="stroke: none; stroke-width: 1; stroke-dasharray: none; stroke-linecap: butt; stroke-linejoin: miter; stroke-miterlimit: 10; fill: #58C2B2; fill-rule: nonzero; opacity: 1;" transform="" stroke-linecap="round" />
  <path d="M 66.767 129.651 c 1.503 -1.335 4.083 -6.289 4.711 -6.664 c 0.615 -0.369 1.533 0.161 1.635 -0.252 c 0.074 -0.43 -0.091 -0.607 -0.091 -0.607 c 0.753 0.178 0.595 -0.54 0.595 -0.54 l 0.3 0.305 l 1.277 -1.316 c 6.184 5.208 13.673 8.011 21.276 8.44 l 0.022 1.829 h 0.424 s -0.604 0.394 0.062 0.788 c 0 0 -0.236 0 -0.466 0.366 c -0.233 0.378 0.805 0.636 1.008 1.335 c 0.189 0.681 -1.319 6.057 -1.151 8.055 c 0.166 1.991 2.282 2.26 2.893 2.26 c 0.605 -0.021 2.716 -0.35 2.826 -2.349 c 0.112 -1.99 -1.552 -7.319 -1.377 -8.018 c 0.174 -0.71 1.202 -0.978 0.966 -1.345 c -0.237 -0.369 -0.479 -0.369 -0.479 -0.369 c 0.653 -0.41 0.036 -0.789 0.036 -0.789 l 0.422 -0.015 l -0.028 -1.83 a 36.196 36.196 0 0 0 21.015 -9.077 l 1.309 1.274 l 0.304 -0.305 s -0.143 0.715 0.591 0.519 c 0 0 -0.161 0.179 -0.051 0.609 c 0.097 0.41 1.002 -0.141 1.639 0.208 c 0.637 0.364 3.361 5.229 4.885 6.521 c 1.541 1.281 3.226 -0.02 3.645 -0.447 c 0.421 -0.44 1.676 -2.17 0.341 -3.668 c -1.336 -1.485 -6.281 -4.075 -6.65 -4.693 c -0.364 -0.616 0.156 -1.54 -0.269 -1.642 c -0.429 -0.077 -0.591 0.081 -0.591 0.081 c 0.171 -0.743 -0.536 -0.581 -0.536 -0.581 l 0.295 -0.305 l -1.316 -1.279 c 5.207 -6.174 8.01 -13.667 8.429 -21.273 l 1.847 -0.024 l -0.017 -0.415 s 0.411 0.602 0.806 -0.071 c 0 0 0 0.244 0.368 0.468 c 0.369 0.23 0.617 -0.807 1.319 -1.003 c 0.698 -0.208 6.072 1.315 8.063 1.144 c 1.997 -0.159 2.269 -2.282 2.249 -2.893 c 0 -0.618 -0.33 -2.706 -2.332 -2.822 c -1.997 -0.107 -7.317 1.558 -8.034 1.38 c -0.699 -0.171 -0.978 -1.202 -1.335 -0.97 c -0.368 0.242 -0.36 0.475 -0.36 0.475 c -0.411 -0.643 -0.814 -0.025 -0.814 -0.025 v -0.429 l -1.829 0.035 c -0.662 -7.59 -3.691 -14.999 -9.076 -21.021 l 1.282 -1.318 l -0.306 -0.294 s 0.717 0.141 0.52 -0.603 c 0 0 0.162 0.172 0.592 0.065 c 0.43 -0.101 -0.126 -1.005 0.224 -1.643 c 0.353 -0.633 5.224 -3.357 6.517 -4.879 c 1.289 -1.543 -0.01 -3.226 -0.45 -3.657 c -0.449 -0.414 -2.168 -1.676 -3.655 -0.348 c -1.486 1.35 -4.076 6.286 -4.693 6.665 c -0.627 0.369 -1.562 -0.151 -1.632 0.269 c -0.107 0.43 0.07 0.591 0.07 0.591 c -0.743 -0.178 -0.592 0.536 -0.592 0.536 l -0.294 -0.303 l -1.282 1.319 a 36.007 36.007 0 0 0 -21.279 -8.424 l -0.021 -1.846 h -0.432 s 0.615 -0.395 -0.055 -0.789 c 0 0 0.229 0 0.473 -0.368 c 0.219 -0.375 -0.812 -0.618 -1.009 -1.318 c -0.2 -0.696 1.322 -6.076 1.147 -8.064 c -0.171 -1.998 -2.286 -2.264 -2.888 -2.264 c -0.616 0.016 -2.73 0.348 -2.837 2.346 c -0.112 1.998 1.568 7.321 1.387 8.036 c -0.184 0.692 -1.208 0.969 -0.967 1.329 c 0.242 0.365 0.476 0.365 0.476 0.365 c -0.649 0.414 -0.042 0.808 -0.042 0.808 h -0.419 l 0.021 1.827 a 36.252 36.252 0 0 0 -21.003 9.077 L 73.07 64.55 l -0.301 0.303 s 0.139 -0.718 -0.604 -0.521 c 0 0 0.156 -0.177 0.061 -0.591 c -0.093 -0.431 -1.008 0.125 -1.637 -0.224 s -3.363 -5.233 -4.896 -6.522 c -1.526 -1.284 -3.21 0.016 -3.636 0.466 c -0.43 0.43 -1.685 2.159 -0.35 3.645 c 1.329 1.498 6.281 4.077 6.656 4.698 c 0.372 0.617 -0.161 1.558 0.262 1.638 c 0.43 0.091 0.595 -0.08 0.595 -0.08 c -0.165 0.743 0.537 0.583 0.537 0.583 l -0.292 0.306 l 1.32 1.29 a 36.08 36.08 0 0 0 -8.447 21.263 l -1.823 0.036 v 0.419 s -0.405 -0.617 -0.792 0.056 c 0 0 0 -0.242 -0.381 -0.466 c -0.369 -0.227 -0.618 0.814 -1.319 1.002 c -0.689 0.207 -6.06 -1.317 -8.061 -1.146 c -1.991 0.161 -2.263 2.284 -2.256 2.893 c 0.02 0.62 0.343 2.725 2.337 2.843 c 1.997 0.104 7.328 -1.579 8.026 -1.398 c 0.708 0.188 0.985 1.2 1.348 0.967 c 0.368 -0.242 0.358 -0.476 0.358 -0.476 c 0.414 0.647 0.803 0.046 0.803 0.046 l 0.008 0.413 l 1.833 -0.028 a 36.05 36.05 0 0 0 9.077 21.014 l -1.276 1.315 l 0.311 0.297 s -0.721 -0.146 -0.535 0.607 c 0 0 -0.164 -0.162 -0.591 -0.061 c -0.414 0.087 0.133 1.013 -0.217 1.628 c -0.358 0.637 -5.228 3.361 -6.513 4.885 c -1.293 1.542 0.013 3.226 0.453 3.655 c 0.429 0.429 2.149 1.682 3.639 0.346 z m 18.357 -25.362 a 4.544 4.544 0 0 0 -2.851 2.648 a 21.163 21.163 0 0 1 -5.107 -11.897 c 0.72 0.269 2.214 0.617 3.831 -0.288 c 2.079 -1.146 4.684 -0.08 5.165 0.288 a 12.668 12.668 0 0 0 2.312 5.331 c -0.089 0.616 -1.106 3.206 -3.35 3.918 z m 1.932 -24.822 a 4.467 4.467 0 0 0 -2.44 -2.76 a 21.147 21.147 0 0 1 11.597 -4.92 a 4.561 4.561 0 0 0 0.372 3.559 c 1.155 2.063 0.091 4.677 -0.273 5.152 a 12.688 12.688 0 0 0 -5.334 2.302 c -0.619 -0.081 -3.204 -1.093 -3.922 -3.333 z m 24.822 1.927 a 4.439 4.439 0 0 0 2.683 -2.277 a 21.32 21.32 0 0 1 4.98 11.433 a 4.481 4.481 0 0 0 -3.531 0.375 c -2.076 1.148 -4.688 0.081 -5.163 -0.267 a 12.496 12.496 0 0 0 -2.308 -5.331 c 0.088 -0.637 1.103 -3.226 3.339 -3.933 z m -9.027 3.914 c 4.156 2.402 5.585 7.715 3.18 11.872 a 8.7 8.7 0 0 1 -11.873 3.191 c -4.156 -2.393 -5.576 -7.716 -3.181 -11.873 c 2.399 -4.156 7.715 -5.582 11.874 -3.19 z m -2.16 19.876 c 1.922 -0.343 3.755 -1.111 5.33 -2.305 c 0.628 0.081 3.219 1.093 3.93 3.352 c 0.534 1.649 1.739 2.428 2.471 2.762 a 21.118 21.118 0 0 1 -11.711 5.167 a 4.545 4.545 0 0 0 -0.287 -3.809 c -1.153 -2.077 -0.082 -4.693 0.267 -5.167 z m 14.377 1.046 c -0.366 -0.732 -1.174 -1.891 -2.822 -2.365 c -2.286 -0.653 -3.384 -3.251 -3.458 -3.843 c 0.204 -0.305 0.393 -0.602 0.577 -0.905 a 12.428 12.428 0 0 0 1.547 -4.49 c 0.501 -0.386 3.054 -1.505 5.148 -0.411 a 4.49 4.49 0 0 0 3.562 0.25 a 21.272 21.272 0 0 1 -4.554 11.764 z m -3.349 -29.854 a 4.442 4.442 0 0 0 -2.188 2.731 c -0.66 2.286 -3.256 3.378 -3.85 3.46 a 14.037 14.037 0 0 0 -0.908 -0.593 a 12.4 12.4 0 0 0 -4.494 -1.548 c -0.381 -0.495 -1.492 -3.049 -0.413 -5.126 a 4.56 4.56 0 0 0 0.278 -3.556 a 21.302 21.302 0 0 1 11.575 4.632 z m -29.786 3.065 a 4.484 4.484 0 0 0 2.841 2.373 c 2.282 0.655 3.362 3.26 3.453 3.847 c -0.202 0.303 -0.407 0.597 -0.583 0.92 a 12.533 12.533 0 0 0 -1.554 4.471 c -0.492 0.405 -3.045 1.516 -5.143 0.431 c -1.632 -0.842 -3.1 -0.457 -3.821 -0.169 a 21.177 21.177 0 0 1 4.807 -11.873 z m 2.984 30.051 a 4.464 4.464 0 0 0 2.563 -2.923 c 0.656 -2.28 3.262 -3.378 3.847 -3.459 c 0.297 0.208 0.597 0.416 0.906 0.592 a 12.684 12.684 0 0 0 4.492 1.563 c 0.381 0.481 1.497 3.044 0.414 5.133 c -0.851 1.638 -0.453 3.125 -0.162 3.842 a 21.213 21.213 0 0 1 -12.06 -4.748 z" style="stroke: none; stroke-width: 1; stroke-dasharray: none; stroke-linecap: butt; stroke-linejoin: miter; stroke-miterlimit: 10; fill: #1A6576; fill-rule: nonzero; opacity: 1;" transform="" stroke-linecap="round" />
</g>
</svg>